<?xml version="1.0" encoding="utf-8"?>
<svg viewBox="0 0 500 500" xmlns="http://www.w3.org/2000/svg">
  <path xmlns="http://www.w3.org/2000/svg" opacity="1.000000" d="M 3.365 -0.835 C 7.539 8.885 7.849 19.282 8.929 29.546 C 9.86 38.406 10.751 47.269 11.558 56.14 C 12.127 62.4 12.503 68.679 13.013 74.946 C 13.902 85.888 14.838 96.825 15.735 107.766 C 16.231 113.793 16.942 119.815 17.106 125.852 C 17.369 135.581 19.666 144.593 23.992 153.398 C 30.036 165.701 35.207 178.434 40.799 190.962 C 43.431 196.866 46.209 202.701 48.868 208.593 C 54.123 220.231 59.34 231.881 64.563 243.528 C 71.197 258.319 77.748 273.146 84.504 287.881 C 86.588 292.427 88.209 297.034 86.788 301.919 C 84.653 309.271 78.486 312.244 71.835 314.243 C 58.845 318.148 45.804 321.88 32.782 325.68 C 29.129 326.748 25.478 327.804 21.228 329.04 C 23.438 332.29 25.407 335.339 27.529 338.277 C 34.919 348.521 42.674 358.517 49.678 369.017 C 54.679 376.512 53.98 384.266 47.718 390.07 C 42.338 395.063 35.781 398.802 29.655 402.966 C 23.513 407.141 17.261 411.153 11.073 415.258 C 10.821 415.424 10.722 415.819 10.297 416.531 C 13.194 417.093 15.904 417.544 18.583 418.154 C 34.333 421.744 44.168 432.164 50.168 446.456 C 53.274 453.851 52.724 461.944 52.523 470.495 C 52.506 480.717 52.466 490.296 52.43 499.871" style="fill: none; stroke: rgb(218, 85, 85);" transform="matrix(1, 0, 0, 1, -5.684341886080802e-14, -2.842170943040401e-14)"/>
</svg>